<svg xmlns="http://www.w3.org/2000/svg" width="256" height="256" viewBox="0 0 100 100"><rect width="100" height="100" rx="20" fill="#1e7c99"></rect><path d="M57.99 63.42L57.99 13.14L75.32 13.14L75.32 63.42Q75.28 70.49 71.95 75.76Q68.61 81.04 62.73 83.95Q56.85 86.86 49.15 86.86L49.15 86.86Q42.33 86.86 36.77 84.48Q31.21 82.10 27.93 77.10Q24.65 72.09 24.68 64.28L24.68 64.28L42.19 64.28Q42.29 67.08 43.27 69.05Q44.25 71.02 45.99 72.02Q47.73 73.01 50.14 73.01L50.14 73.01Q52.66 73.01 54.40 71.93Q56.14 70.85 57.05 68.71Q57.95 66.58 57.99 63.42L57.99 63.42Z" fill="#fff"></path></svg>